<?xml version="1.0" standalone="no"?>
<!DOCTYPE svg PUBLIC "-//W3C//DTD SVG 20010904//EN"
 "http://www.w3.org/TR/2001/REC-SVG-20010904/DTD/svg10.dtd">
<svg version="1.0" xmlns="http://www.w3.org/2000/svg"
 width="1024.000000pt" height="1024.000000pt" viewBox="0 0 1024.000000 1024.000000"
 preserveAspectRatio="xMidYMid meet">
<metadata>
Created by potrace 1.11, written by Peter Selinger 2001-2013
</metadata>
<g transform="translate(0.000000,1024.000000) scale(0.100000,-0.100000)"
fill="#000000" stroke="none">
<path d="M680 6376 c0 -4219 -4 -3926 55 -4075 71 -182 233 -332 430 -398 79
-27 85 -27 392 -31 l311 -3 5 -292 c4 -328 8 -353 79 -497 33 -67 58 -101 122
-165 91 -89 159 -134 268 -173 l73 -27 2502 -3 2503 -2 2 -353 3 -352 313 -3
312 -2 0 355 0 355 258 0 c217 0 261 -2 280 -16 22 -15 22 -15 22 -355 l0
-339 315 0 315 0 0 3858 c0 3789 -1 3859 -20 3952 -30 146 -83 245 -189 350
-99 98 -186 149 -307 180 -68 18 -111 20 -376 20 l-298 0 0 263 c-1 359 -19
449 -121 602 -80 120 -186 202 -333 259 l-81 31 -2507 3 -2508 2 0 360 0 360
-315 0 -315 0 0 -360 0 -360 -251 0 c-246 0 -281 4 -301 34 -4 6 -8 163 -8
349 l0 337 -315 0 -315 0 0 -3864z m1190 -676 l0 -3211 -259 3 c-238 3 -261 5
-280 22 l-21 19 0 3189 0 3188 280 0 280 0 0 -3210z m5540 3190 c19 -19 20
-33 20 -275 l0 -255 -2437 0 c-1945 0 -2443 3 -2463 13 l-25 13 -3 262 -2 262
2445 0 c2432 0 2445 0 2465 -20z m22 -3770 l3 -2630 -2467 0 -2468 0 0 2630 0
2630 2465 0 2465 0 2 -2630z m1162 2609 l26 -20 0 -3190 0 -3189 -285 0 -284
0 -3 317 c-2 175 -2 1620 0 3211 l2 2892 259 0 c246 0 260 -1 285 -21z m-1193
-5869 c18 -10 19 -24 19 -270 l0 -260 -2440 0 c-2427 0 -2440 0 -2460 20 -19
19 -20 33 -20 270 l0 250 2441 0 c1663 0 2446 -3 2460 -10z"/>
<path d="M4815 7139 c-214 -19 -473 -74 -670 -141 -232 -78 -531 -210 -753
-330 l-112 -61 46 -86 c74 -136 287 -526 291 -530 2 -2 101 43 221 102 482
235 717 301 1072 300 199 0 315 -17 443 -64 163 -59 291 -174 377 -340 42 -80
90 -244 90 -304 l0 -33 -82 -6 c-817 -65 -1361 -174 -1798 -358 -506 -213
-758 -520 -801 -976 -52 -561 257 -1012 816 -1191 214 -69 505 -91 741 -56
345 52 736 224 1108 489 59 42 110 75 112 73 2 -2 19 -107 38 -235 19 -127 37
-236 41 -242 4 -6 135 -10 381 -10 l375 0 -4 1308 c-3 1284 -3 1309 -24 1417
-44 231 -86 360 -163 515 -224 444 -642 701 -1235 758 -119 12 -385 12 -510 1z
m1015 -2482 l0 -404 -90 -67 c-206 -154 -438 -283 -612 -340 -261 -87 -553
-89 -779 -6 -219 80 -319 213 -319 426 0 98 24 183 75 269 47 78 84 116 173
176 221 148 548 242 1057 304 194 24 383 42 443 44 l52 1 0 -403z"/>
</g>
</svg>
