<svg id="Ebene_1" data-name="Ebene 1" xmlns="http://www.w3.org/2000/svg" viewBox="0 0 1350 1350">
  <defs>
    <style>
      .cls-1,.cls-2,.cls-3{fill:none;stroke-linejoin:round}.cls-1{stroke:#999}.cls-1,.cls-3{stroke-width:36.75px}.cls-2,.cls-3{stroke:#000}.cls-2{stroke-width:32px}
    </style>
  </defs>
  <path class="cls-1" d="M474.69 82.06h321.78a18.77 18.77 0 0 1 18.76 18.77A18.76 18.76 0 0 0 834 119.59h76.45a19.23 19.23 0 0 1 19.23 19.23v7.51a19.23 19.23 0 0 0 19.24 19.23h31.89a19.23 19.23 0 0 1 19.19 19.23l-.09 51.83h29.7a24.9 24.9 0 0 1 24.9 24.9v1025.1"/>
  <circle class="cls-2" cx="355.55" cy="557.69" r="30.96"/>
  <circle class="cls-2" cx="643.56" cy="557.69" r="30.96"/>
  <path class="cls-3" d="M380.16 936.55h136.03v-27.93"/>
  <path class="cls-1" d="M543.18 491.09h36.11a18.3 18.3 0 0 0 18.3-18.3 18.29 18.29 0 0 1 18.29-18.29h69.42a18.29 18.29 0 0 1 18.3 18.29 18.29 18.29 0 0 0 18.29 18.3h26.74M300.65 454.5h58.19a18.29 18.29 0 0 1 18.29 18.29 18.29 18.29 0 0 0 18.29 18.3H441"/>
  <path class="cls-3" d="M630.89 1042.2h170.27M422.45 509.46v227a35.7 35.7 0 0 0-35.7 35.7v16.8a35.7 35.7 0 0 0 35.7 35.7h25.2"/>
  <path class="cls-1" d="M843.5 1286.62V250.73a35.11 35.11 0 0 0-35.11-35.11H552.21a66.76 66.76 0 0 1-66.76-66.77V87.52M515.75 1049.32v237.3"/>
  <path class="cls-3" d="M674.51 1286.62v-211.36a33.06 33.06 0 0 0-33.06-33.06H378.4a82 82 0 0 1-81.95-82V215.09"/>
  <path class="cls-1" d="M485.45 116.39v31.94a67.29 67.29 0 0 1-67.29 67.29h-118l-3.67-1.05V179a12.68 12.68 0 0 1 12.68-12.68h16.64a12.68 12.68 0 0 0 12.68-12.68v-24a12.68 12.68 0 0 1 12.68-12.68h33.44a12.68 12.68 0 0 0 12.68-12.68V95a12.68 12.68 0 0 1 12.68-12.68h68.13"/>
</svg>