<svg id="Ebene_1" data-name="Ebene 1" xmlns="http://www.w3.org/2000/svg" viewBox="0 0 1350 1350">
  <defs>
    <style>
      .cls-1,.cls-2{fill:none;stroke:#000;stroke-linejoin:round}.cls-1{stroke-width:36.75px}.cls-2{stroke-width:32px;opacity:.5}
    </style>
  </defs>
  <path class="cls-1" d="M673.8 1286.62v-127.36a33.06 33.06 0 0 0-33.06-33.06h-263a82 82 0 0 1-81.95-82v-867A19.23 19.23 0 0 1 315 158.05h21.58a19.23 19.23 0 0 0 19.23-19.23A19.23 19.23 0 0 1 375 119.59h61.45a18.76 18.76 0 0 0 18.76-18.76A18.77 18.77 0 0 1 474 82.06h321.76a18.77 18.77 0 0 1 18.76 18.77 18.76 18.76 0 0 0 18.76 18.76h76.46A19.23 19.23 0 0 1 929 138.82v7.51a19.23 19.23 0 0 0 19.23 19.23h31.9a19.23 19.23 0 0 1 19.23 19.23v403.86h51.37a33.06 33.06 0 0 1 33.06 33.06v114a33.06 33.06 0 0 1-33.06 33.06h-18.31a33.06 33.06 0 0 0-33.06 33.06v484.79"/>
  <circle class="cls-2" cx="354.84" cy="557.69" r="30.96"/>
  <circle class="cls-2" cx="642.84" cy="557.69" r="30.96"/>
  <path class="cls-1" d="M489 896.36v.85a40.42 40.42 0 0 0 40.42 40.42h123.42M437.45 896.36v.85A40.42 40.42 0 0 1 397 937.63H295.74M411.45 999.55h136.02v-28.46"/>
  <path opacity=".5" stroke-width="36.75" fill="none" stroke="#000" stroke-linejoin="round" d="M857.67 830.69v65.67H777v78.8h-75.05v87.58H297.61"/>
  <path class="cls-1" d="M542.46 491.09h36.12a18.3 18.3 0 0 0 18.3-18.3 18.29 18.29 0 0 1 18.29-18.29h69.42a18.29 18.29 0 0 1 18.29 18.29 18.3 18.3 0 0 0 18.3 18.3h26.73M295.74 454.5h62.38a18.29 18.29 0 0 1 18.3 18.29 18.29 18.29 0 0 0 18.29 18.3h26.74v315.39a43 43 0 0 0 43 43h43.34M295.74 249.05h37.94a23 23 0 0 0 23-23v-15.88a23 23 0 0 1 23-23h336.75a23 23 0 0 1 23 23V226a23 23 0 0 0 23 23h121.93a23 23 0 0 1 23 23v269.75M630.18 1126.2h170.27"/>
</svg>